<?xml version="1.0" encoding="UTF-8"?>
<svg width="512" height="512" viewBox="0 0 512 512" fill="none" xmlns="http://www.w3.org/2000/svg">
<path d="M192 405.333C101.5 434.833 101.5 352 64 341.333M320 448V379.333C320 352 322.133 343.467 309.333 330.667C369.067 324.267 426.667 301.467 426.667 202.667C426.641 177.172 417.6 152.556 400.667 134.667C408.264 112.283 407.494 87.785 397.333 66.1333C397.333 66.1333 373.333 59.7333 320 93.8667C278.77 82.6378 233.23 82.6378 192 93.8667C138.667 59.7333 114.667 66.1333 114.667 66.1333C104.506 87.785 103.736 112.283 111.333 134.667C94.4 152.556 85.3594 177.172 85.3333 202.667C85.3333 301.467 142.933 324.267 202.667 330.667C189.867 343.467 189.867 356.267 192 379.333V448" stroke="#3B82F6" stroke-width="32" stroke-linecap="round" stroke-linejoin="round"/>
</svg>
