<?xml version="1.0" encoding="UTF-8"?>
<svg width="512" height="512" viewBox="0 0 512 512" fill="none" xmlns="http://www.w3.org/2000/svg">
<path d="M477.043 219.205C484.948 188.542 482.909 154.687 463.417 125.391C435.756 83.642 385.783 66.9507 338.851 84.0788C317.765 52.1487 283.743 30.1313 243.848 28.0922C189.198 25.3531 139.225 61.4 119.064 115.883C83.9018 124.521 53.5807 147.398 37.0249 179.731C15.1944 222.713 24.9932 274.789 61.8248 306.062C53.9198 336.725 55.9585 370.58 75.4508 399.876C103.111 441.625 153.084 458.316 200.017 441.188C221.103 473.118 255.124 495.136 295.019 497.175C349.669 499.914 399.643 463.867 419.804 409.384C454.966 400.746 485.287 377.869 501.843 345.536C523.673 302.554 513.874 250.478 477.043 219.205ZM419.804 378.908C417.432 379.777 415.06 381.483 413.525 383.535C400.347 405.579 381.028 422.793 357.338 432.723C333.647 442.653 307.231 444.707 281.668 438.361C279.12 437.838 276.572 438.013 274.37 439.229C234.049 460.939 185.668 454.417 153.258 425.99C150.886 423.938 147.842 422.27 144.797 421.402C118.382 414.881 93.6606 399.006 76.6316 375.648C59.6026 352.29 51.4648 323.166 54.1582 294.218C54.6868 291.644 54.3409 288.72 53.1012 286.32C32.6023 249.435 35.9936 203.785 63.3588 171.441C65.7307 168.868 67.6095 165.77 68.3108 162.497C73.9477 136.728 87.9755 113.544 107.608 96.8444C127.241 80.1444 151.634 70.5673 177.197 70.0443C179.744 69.8707 182.292 68.8246 184.151 67.0813C211.285 40.2676 248.775 31.1063 283.743 41.8363C287.134 42.8824 290.701 42.8824 294.092 41.8363C320.507 35.3157 348.311 38.0548 372.001 49.6235C395.692 61.1922 414.348 80.6674 424.075 104.488C425.264 107.064 427.283 109.289 429.831 110.335C457.142 125.914 477.304 152.028 485.112 182.828C492.919 213.629 487.636 246.145 470.782 272.437C469.066 274.836 468.196 277.761 468.548 280.683C471.242 307.283 465.152 334.327 451.269 356.546C435.756 381.135 411.733 397.835 383.923 403.661L383.752 403.835C363.414 408.338 342.21 407.115 322.349 400.398C320.681 399.876 318.661 399.702 317.121 400.05C309.661 401.444 302.201 402.141 294.741 402.141C265.721 402.316 237.44 392.91 214.829 374.954C213.294 373.73 211.582 373.381 209.563 373.555C184.151 376.139 158.765 370.058 138.083 356.372L138.255 356.198C117.573 342.511 102.758 321.842 96.1791 298.309L96.0062 298.135C90.7426 279.314 91.0885 258.994 96.8805 240.174C97.5818 238.256 97.4089 236.338 96.5347 234.594C85.0849 214.497 80.5106 191.313 84.0748 168.692C84.2476 168.344 84.2476 168.17 84.4205 167.821C88.1577 145.026 98.922 124.356 115.059 108.179C129.088 94.3184 146.289 84.3884 165.089 79.1844L165.261 79.0107C181.122 75.0388 197.47 75.0388 213.294 79.0107C215.313 79.5338 217.505 79.7074 219.352 79.1844C232.88 74.8417 247.26 72.9248 261.463 73.448C261.636 73.448 261.636 73.448 261.808 73.448C276.018 73.9657 290.024 76.6048 303.377 81.6619C305.396 82.5344 307.588 82.5344 309.607 81.6619C326.445 75.3883 344.663 73.2944 362.413 75.9156C380.164 78.5369 396.859 85.6059 410.888 96.6707C411.061 96.8444 411.234 97.0181 411.407 97.1917C425.437 108.257 436.578 122.466 443.865 138.819C451.152 155.173 454.19 173.128 452.809 190.96V191.134C451.596 208.87 446.486 226.13 437.796 241.51C436.405 243.602 435.709 246.002 435.709 248.402C435.709 252.379 435.536 256.366 435.191 260.347C432.6 284.059 422.757 306.349 406.619 323.784C388.696 342.975 364.796 355.064 339.325 358.29H339.153C336.108 358.811 333.237 360.381 331.218 362.606C319.231 375.648 304.593 386.104 288.278 393.142C272.155 400.005 254.577 403.313 236.827 402.844H236.654C234.107 402.67 231.386 403.313 229.194 404.529C216.446 411.573 202.59 416.109 188.366 417.852C174.142 419.594 159.573 418.2 146.116 413.664L145.943 413.491C132.479 409.128 120.054 401.909 109.45 392.214C107.953 390.991 106.111 390.294 104.096 390.121C82.5581 388.029 62.4846 378.443 46.5281 362.619C35.6365 351.767 27.6987 338.554 23.2582 324.174C18.8177 309.793 17.9548 294.523 20.7367 279.63L20.9096 279.457C23.5136 264.561 29.5444 250.356 38.571 238.07C40.2422 235.845 40.9436 233.101 40.4149 230.352C37.9025 216.065 38.4312 201.355 41.9956 187.503C45.5599 173.651 52.0132 160.872 60.9597 149.929L61.1326 149.755C70.0791 138.639 81.2131 129.637 93.8335 123.301C95.3338 122.433 96.5347 121.04 97.2361 119.471C108.113 97.7022 124.333 79.0107 144.624 65.5106C149.037 62.4142 153.749 59.6632 158.634 57.3963L158.807 57.2227C167.799 53.2508 177.178 50.2958 186.824 48.4078C186.997 48.4078 186.997 48.4078 187.17 48.2342C196.789 46.3462 206.409 45.6384 216.1 46.1615C216.273 46.1615 216.618 46.1615 216.791 46.3462C236.827 47.9279 255.97 55.3209 272.154 67.6042C274.001 69.001 276.2 69.5129 278.392 69.5129C280.584 69.5129 282.949 69.001 284.796 67.6042C295.922 60.0304 308.329 54.4757 321.597 51.3681C328.863 49.6245 336.289 48.5782 343.753 48.2336H343.925C358.996 47.5368 374.003 50.2958 387.859 56.1765C387.859 56.1765 388.032 56.1765 388.032 56.3502C401.9 62.059 414.348 70.5673 424.779 81.4883C435.209 92.4092 443.366 105.361 448.821 119.471C449.35 120.517 450.051 121.563 450.925 122.433C465.844 138.117 475.98 158.078 479.656 179.554C483.332 201.031 480.309 223.294 471.069 243.086C468.868 248.055 468.024 253.721 468.548 259.301C471.415 283.029 467.689 307.227 457.852 328.753C452.809 339.721 446.14 349.848 438.158 358.989C436.751 360.906 435.882 363.13 435.709 365.526C435.709 365.7 435.709 365.873 435.709 366.047C433.985 368.098 432.234 370.149 430.31 372.025C430.137 372.199 429.965 372.373 429.792 372.547C428.956 373.243 428.093 374.114 427.229 374.984V375.158C426.019 376.204 424.809 377.249 423.599 378.121C422.562 378.818 421.698 379.339 420.834 379.862C420.313 380.036 420.054 380.471 419.804 380.645V378.908Z" fill="#3B82F6"/>
</svg>
